<mxfile host="drawio-plugin" modified="2021-04-23T00:37:30.879Z" agent="5.0 (Windows NT 6.2; Win64; x64) AppleWebKit/537.36 (KHTML, like Gecko) Chrome/87.0.4280.141 Safari/537.36" etag="C_4sWy2lfIXCIcfAs1t1" version="13.7.9" type="embed" pages="2"><diagram id="tPCsJzVndnmXKFTAt5-Y" name="concurrent mutex sleep"><mxGraphModel dx="342" dy="1995" grid="1" gridSize="10" guides="1" tooltips="1" connect="1" arrows="1" fold="1" page="1" pageScale="1" pageWidth="850" pageHeight="1100" math="0" shadow="0"><root><mxCell id="0"/><mxCell id="1" parent="0"/><mxCell id="2" value="calls send_nx_mqtt_message()" style="rounded=0;whiteSpace=wrap;html=1;" parent="1" vertex="1"><mxGeometry x="160" width="190" height="40" as="geometry"/></mxCell><mxCell id="4" value="" style="endArrow=classic;html=1;" parent="1" edge="1"><mxGeometry width="50" height="50" relative="1" as="geometry"><mxPoint x="120" as="sourcePoint"/><mxPoint x="120" y="840" as="targetPoint"/></mxGeometry></mxCell><mxCell id="20" value="&quot;ticks&quot;" style="edgeLabel;html=1;align=center;verticalAlign=middle;resizable=0;points=[];" parent="4" vertex="1" connectable="0"><mxGeometry x="0.1105" y="-2" relative="1" as="geometry"><mxPoint as="offset"/></mxGeometry></mxCell><mxCell id="5" value="calls send_nx_mqtt_message()" style="rounded=0;whiteSpace=wrap;html=1;" parent="1" vertex="1"><mxGeometry x="400" y="120" width="190" height="40" as="geometry"/></mxCell><mxCell id="6" value="GET: nx_mqtt_mutex" style="rounded=0;whiteSpace=wrap;html=1;" parent="1" vertex="1"><mxGeometry x="160" y="80" width="190" height="40" as="geometry"/></mxCell><mxCell id="7" value="nx_mqtt_publish()" style="rounded=0;whiteSpace=wrap;html=1;" parent="1" vertex="1"><mxGeometry x="160" y="240" width="190" height="40" as="geometry"/></mxCell><mxCell id="8" value="PUT: nx_mqtt_mutex" style="rounded=0;whiteSpace=wrap;html=1;" parent="1" vertex="1"><mxGeometry x="160" y="400" width="190" height="40" as="geometry"/></mxCell><mxCell id="9" value="sleep 5 ticks" style="rounded=0;whiteSpace=wrap;html=1;" parent="1" vertex="1"><mxGeometry x="160" y="320" width="190" height="40" as="geometry"/></mxCell><mxCell id="10" value="GET: nx_mqtt_mutex" style="rounded=0;whiteSpace=wrap;html=1;" parent="1" vertex="1"><mxGeometry x="400" y="200" width="190" height="40" as="geometry"/></mxCell><mxCell id="11" value="nx_mqtt_publish()" style="rounded=0;whiteSpace=wrap;html=1;" parent="1" vertex="1"><mxGeometry x="400" y="440" width="190" height="40" as="geometry"/></mxCell><mxCell id="12" value="PUT: nx_mqtt_mutex" style="rounded=0;whiteSpace=wrap;html=1;" parent="1" vertex="1"><mxGeometry x="400" y="600" width="190" height="40" as="geometry"/></mxCell><mxCell id="13" value="calls send_nx_mqtt_message()" style="rounded=0;whiteSpace=wrap;html=1;" parent="1" vertex="1"><mxGeometry x="640" y="240" width="190" height="40" as="geometry"/></mxCell><mxCell id="14" value="GET: nx_mqtt_mutex" style="rounded=0;whiteSpace=wrap;html=1;" parent="1" vertex="1"><mxGeometry x="640" y="320" width="190" height="40" as="geometry"/></mxCell><mxCell id="15" value="nx_mqtt_publish()" style="rounded=0;whiteSpace=wrap;html=1;" parent="1" vertex="1"><mxGeometry x="640" y="640" width="190" height="40" as="geometry"/></mxCell><mxCell id="16" value="PUT: nx_mqtt_mutex" style="rounded=0;whiteSpace=wrap;html=1;" parent="1" vertex="1"><mxGeometry x="640" y="800" width="190" height="40" as="geometry"/></mxCell><mxCell id="17" value="sleep 5 ticks" style="rounded=0;whiteSpace=wrap;html=1;" parent="1" vertex="1"><mxGeometry x="400" y="520" width="190" height="40" as="geometry"/></mxCell><mxCell id="19" value="sleep 5 ticks" style="rounded=0;whiteSpace=wrap;html=1;" parent="1" vertex="1"><mxGeometry x="640" y="720" width="190" height="40" as="geometry"/></mxCell></root></mxGraphModel></diagram><diagram id="D5SM3u3SOp9KSRjSQokM" name="buffers"><mxGraphModel dx="1376" dy="716" grid="1" gridSize="10" guides="1" tooltips="1" connect="1" arrows="1" fold="1" page="1" pageScale="1" pageWidth="850" pageHeight="1100" math="0" shadow="0"><root><mxCell id="HoNxb49eIgJGAFnL7xnm-0"/><mxCell id="HoNxb49eIgJGAFnL7xnm-1" parent="HoNxb49eIgJGAFnL7xnm-0"/><mxCell id="HoNxb49eIgJGAFnL7xnm-2" value="" style="rounded=0;whiteSpace=wrap;html=1;fillColor=none;" vertex="1" parent="HoNxb49eIgJGAFnL7xnm-1"><mxGeometry x="40" y="80" width="280" height="40" as="geometry"/></mxCell><mxCell id="HoNxb49eIgJGAFnL7xnm-3" value="header" style="rounded=0;whiteSpace=wrap;html=1;fillColor=none;" vertex="1" parent="HoNxb49eIgJGAFnL7xnm-1"><mxGeometry x="40" y="80" width="80" height="40" as="geometry"/></mxCell><mxCell id="HoNxb49eIgJGAFnL7xnm-4" value="image data" style="rounded=0;whiteSpace=wrap;html=1;fillColor=none;" vertex="1" parent="HoNxb49eIgJGAFnL7xnm-1"><mxGeometry x="120" y="80" width="200" height="40" as="geometry"/></mxCell><mxCell id="HoNxb49eIgJGAFnL7xnm-5" value="" style="endArrow=classic;html=1;" edge="1" parent="HoNxb49eIgJGAFnL7xnm-1"><mxGeometry width="50" height="50" relative="1" as="geometry"><mxPoint x="39" y="210" as="sourcePoint"/><mxPoint x="39" y="130" as="targetPoint"/></mxGeometry></mxCell><mxCell id="HoNxb49eIgJGAFnL7xnm-6" value="message_buffer" style="edgeLabel;html=1;align=center;verticalAlign=middle;resizable=0;points=[];" vertex="1" connectable="0" parent="HoNxb49eIgJGAFnL7xnm-5"><mxGeometry x="-0.6" y="-1" relative="1" as="geometry"><mxPoint y="-24" as="offset"/></mxGeometry></mxCell><mxCell id="HoNxb49eIgJGAFnL7xnm-7" value="" style="endArrow=classic;html=1;" edge="1" parent="HoNxb49eIgJGAFnL7xnm-1"><mxGeometry width="50" height="50" relative="1" as="geometry"><mxPoint x="120" y="270" as="sourcePoint"/><mxPoint x="120" y="130" as="targetPoint"/></mxGeometry></mxCell><mxCell id="HoNxb49eIgJGAFnL7xnm-8" value="&amp;amp;(message_buffer[HEADER_SIZE])" style="edgeLabel;html=1;align=center;verticalAlign=middle;resizable=0;points=[];" vertex="1" connectable="0" parent="HoNxb49eIgJGAFnL7xnm-7"><mxGeometry x="-0.6" y="-1" relative="1" as="geometry"><mxPoint y="-24" as="offset"/></mxGeometry></mxCell><mxCell id="HoNxb49eIgJGAFnL7xnm-9" value="" style="rounded=0;whiteSpace=wrap;html=1;fillColor=none;" vertex="1" parent="HoNxb49eIgJGAFnL7xnm-1"><mxGeometry x="40" y="360" width="400" height="40" as="geometry"/></mxCell><mxCell id="HoNxb49eIgJGAFnL7xnm-12" value="" style="endArrow=classic;html=1;" edge="1" parent="HoNxb49eIgJGAFnL7xnm-1"><mxGeometry width="50" height="50" relative="1" as="geometry"><mxPoint x="39" y="490" as="sourcePoint"/><mxPoint x="39" y="410" as="targetPoint"/><Array as="points"><mxPoint x="39" y="450"/></Array></mxGeometry></mxCell><mxCell id="HoNxb49eIgJGAFnL7xnm-13" value="&amp;amp;(fb[CHUNK_SIZE * 0])" style="edgeLabel;html=1;align=center;verticalAlign=middle;resizable=0;points=[];" vertex="1" connectable="0" parent="HoNxb49eIgJGAFnL7xnm-12"><mxGeometry x="-0.6" y="-1" relative="1" as="geometry"><mxPoint y="-24" as="offset"/></mxGeometry></mxCell><mxCell id="HoNxb49eIgJGAFnL7xnm-16" value="chunk 0" style="rounded=0;whiteSpace=wrap;html=1;fillColor=none;" vertex="1" parent="HoNxb49eIgJGAFnL7xnm-1"><mxGeometry x="40" y="360" width="80" height="40" as="geometry"/></mxCell><mxCell id="HoNxb49eIgJGAFnL7xnm-17" value="chunk 1" style="rounded=0;whiteSpace=wrap;html=1;fillColor=none;" vertex="1" parent="HoNxb49eIgJGAFnL7xnm-1"><mxGeometry x="120" y="360" width="80" height="40" as="geometry"/></mxCell><mxCell id="HoNxb49eIgJGAFnL7xnm-18" value="chunk 2" style="rounded=0;whiteSpace=wrap;html=1;fillColor=none;" vertex="1" parent="HoNxb49eIgJGAFnL7xnm-1"><mxGeometry x="200" y="360" width="80" height="40" as="geometry"/></mxCell><mxCell id="HoNxb49eIgJGAFnL7xnm-19" value="chunk 3" style="rounded=0;whiteSpace=wrap;html=1;fillColor=none;" vertex="1" parent="HoNxb49eIgJGAFnL7xnm-1"><mxGeometry x="280" y="360" width="80" height="40" as="geometry"/></mxCell><mxCell id="HoNxb49eIgJGAFnL7xnm-20" value="chunk 4" style="rounded=0;whiteSpace=wrap;html=1;fillColor=none;" vertex="1" parent="HoNxb49eIgJGAFnL7xnm-1"><mxGeometry x="360" y="360" width="80" height="40" as="geometry"/></mxCell><mxCell id="HoNxb49eIgJGAFnL7xnm-21" value="" style="endArrow=classic;html=1;" edge="1" parent="HoNxb49eIgJGAFnL7xnm-1"><mxGeometry width="50" height="50" relative="1" as="geometry"><mxPoint x="40" y="600" as="sourcePoint"/><mxPoint x="40" y="520" as="targetPoint"/></mxGeometry></mxCell><mxCell id="HoNxb49eIgJGAFnL7xnm-22" value="zeroth time" style="edgeLabel;html=1;align=center;verticalAlign=middle;resizable=0;points=[];" vertex="1" connectable="0" parent="HoNxb49eIgJGAFnL7xnm-21"><mxGeometry x="-0.6" y="-1" relative="1" as="geometry"><mxPoint y="-24" as="offset"/></mxGeometry></mxCell><mxCell id="HoNxb49eIgJGAFnL7xnm-23" value="" style="endArrow=classic;html=1;" edge="1" parent="HoNxb49eIgJGAFnL7xnm-1"><mxGeometry width="50" height="50" relative="1" as="geometry"><mxPoint x="119" y="600" as="sourcePoint"/><mxPoint x="119" y="520" as="targetPoint"/></mxGeometry></mxCell><mxCell id="HoNxb49eIgJGAFnL7xnm-24" value="oneth time" style="edgeLabel;html=1;align=center;verticalAlign=middle;resizable=0;points=[];" vertex="1" connectable="0" parent="HoNxb49eIgJGAFnL7xnm-23"><mxGeometry x="-0.6" y="-1" relative="1" as="geometry"><mxPoint y="-24" as="offset"/></mxGeometry></mxCell><mxCell id="HoNxb49eIgJGAFnL7xnm-25" value="" style="endArrow=classic;html=1;" edge="1" parent="HoNxb49eIgJGAFnL7xnm-1"><mxGeometry width="50" height="50" relative="1" as="geometry"><mxPoint x="199" y="600" as="sourcePoint"/><mxPoint x="199" y="520" as="targetPoint"/></mxGeometry></mxCell><mxCell id="HoNxb49eIgJGAFnL7xnm-26" value="meowth time" style="edgeLabel;html=1;align=center;verticalAlign=middle;resizable=0;points=[];" vertex="1" connectable="0" parent="HoNxb49eIgJGAFnL7xnm-25"><mxGeometry x="-0.6" y="-1" relative="1" as="geometry"><mxPoint y="-24" as="offset"/></mxGeometry></mxCell><mxCell id="HoNxb49eIgJGAFnL7xnm-27" value="" style="endArrow=classic;html=1;" edge="1" parent="HoNxb49eIgJGAFnL7xnm-1"><mxGeometry width="50" height="50" relative="1" as="geometry"><mxPoint x="120" y="490" as="sourcePoint"/><mxPoint x="120" y="410" as="targetPoint"/></mxGeometry></mxCell><mxCell id="HoNxb49eIgJGAFnL7xnm-28" value="&amp;amp;(fb[CHUNK_SIZE * 1])" style="edgeLabel;html=1;align=center;verticalAlign=middle;resizable=0;points=[];" vertex="1" connectable="0" parent="HoNxb49eIgJGAFnL7xnm-27"><mxGeometry x="-0.6" y="-1" relative="1" as="geometry"><mxPoint x="-1" y="-4" as="offset"/></mxGeometry></mxCell><mxCell id="HoNxb49eIgJGAFnL7xnm-29" value="" style="shape=curlyBracket;whiteSpace=wrap;html=1;rounded=1;fillColor=none;rotation=90;" vertex="1" parent="HoNxb49eIgJGAFnL7xnm-1"><mxGeometry x="70" y="300" width="20" height="80" as="geometry"/></mxCell><mxCell id="HoNxb49eIgJGAFnL7xnm-30" value="CHUNK_SIZE" style="text;html=1;strokeColor=none;fillColor=none;align=center;verticalAlign=middle;whiteSpace=wrap;rounded=0;" vertex="1" parent="HoNxb49eIgJGAFnL7xnm-1"><mxGeometry x="60" y="310" width="40" height="20" as="geometry"/></mxCell><mxCell id="HoNxb49eIgJGAFnL7xnm-31" value="" style="endArrow=classic;html=1;" edge="1" parent="HoNxb49eIgJGAFnL7xnm-1"><mxGeometry width="50" height="50" relative="1" as="geometry"><mxPoint x="200" y="490" as="sourcePoint"/><mxPoint x="200" y="410" as="targetPoint"/></mxGeometry></mxCell><mxCell id="HoNxb49eIgJGAFnL7xnm-32" value="&amp;amp;(fb[CHUNK_SIZE * 2])" style="edgeLabel;html=1;align=center;verticalAlign=middle;resizable=0;points=[];" vertex="1" connectable="0" parent="HoNxb49eIgJGAFnL7xnm-31"><mxGeometry x="-0.6" y="-1" relative="1" as="geometry"><mxPoint x="-1" y="-34" as="offset"/></mxGeometry></mxCell><mxCell id="HoNxb49eIgJGAFnL7xnm-33" value="" style="endArrow=classic;html=1;" edge="1" parent="HoNxb49eIgJGAFnL7xnm-1"><mxGeometry width="50" height="50" relative="1" as="geometry"><mxPoint x="280" y="490" as="sourcePoint"/><mxPoint x="280" y="410" as="targetPoint"/></mxGeometry></mxCell><mxCell id="HoNxb49eIgJGAFnL7xnm-34" value="&amp;amp;(fb[CHUNK_SIZE * 3])" style="edgeLabel;html=1;align=center;verticalAlign=middle;resizable=0;points=[];" vertex="1" connectable="0" parent="HoNxb49eIgJGAFnL7xnm-33"><mxGeometry x="-0.6" y="-1" relative="1" as="geometry"><mxPoint x="-1" y="-4" as="offset"/></mxGeometry></mxCell><mxCell id="HoNxb49eIgJGAFnL7xnm-35" value="a global_data_t struct" style="whiteSpace=wrap;html=1;aspect=fixed;fillColor=none;" vertex="1" parent="HoNxb49eIgJGAFnL7xnm-1"><mxGeometry y="640" width="80" height="80" as="geometry"/></mxCell><mxCell id="HoNxb49eIgJGAFnL7xnm-36" value="" style="endArrow=classic;html=1;" edge="1" parent="HoNxb49eIgJGAFnL7xnm-1"><mxGeometry width="50" height="50" relative="1" as="geometry"><mxPoint y="810" as="sourcePoint"/><mxPoint y="730" as="targetPoint"/></mxGeometry></mxCell><mxCell id="HoNxb49eIgJGAFnL7xnm-37" value="global_data_t*" style="edgeLabel;html=1;align=center;verticalAlign=middle;resizable=0;points=[];" vertex="1" connectable="0" parent="HoNxb49eIgJGAFnL7xnm-36"><mxGeometry x="-0.6" y="-1" relative="1" as="geometry"><mxPoint y="-24" as="offset"/></mxGeometry></mxCell><mxCell id="HoNxb49eIgJGAFnL7xnm-41" value="(ULONG)" style="whiteSpace=wrap;html=1;aspect=fixed;fillColor=none;" vertex="1" parent="HoNxb49eIgJGAFnL7xnm-1"><mxGeometry x="80" y="760" width="60" height="60" as="geometry"/></mxCell><mxCell id="HoNxb49eIgJGAFnL7xnm-42" value="" style="endArrow=classic;html=1;entryX=0;entryY=0.5;entryDx=0;entryDy=0;" edge="1" parent="HoNxb49eIgJGAFnL7xnm-1" target="HoNxb49eIgJGAFnL7xnm-41"><mxGeometry width="50" height="50" relative="1" as="geometry"><mxPoint x="40" y="770" as="sourcePoint"/><mxPoint x="110" y="650" as="targetPoint"/></mxGeometry></mxCell><mxCell id="HoNxb49eIgJGAFnL7xnm-43" value="" style="endArrow=classic;html=1;entryX=0;entryY=0.5;entryDx=0;entryDy=0;exitX=1;exitY=0.5;exitDx=0;exitDy=0;" edge="1" parent="HoNxb49eIgJGAFnL7xnm-1" source="HoNxb49eIgJGAFnL7xnm-41" target="HoNxb49eIgJGAFnL7xnm-44"><mxGeometry width="50" height="50" relative="1" as="geometry"><mxPoint x="50" y="780" as="sourcePoint"/><mxPoint x="90" y="800" as="targetPoint"/></mxGeometry></mxCell><mxCell id="HoNxb49eIgJGAFnL7xnm-46" value="" style="edgeStyle=orthogonalEdgeStyle;rounded=0;orthogonalLoop=1;jettySize=auto;html=1;" edge="1" parent="HoNxb49eIgJGAFnL7xnm-1" source="HoNxb49eIgJGAFnL7xnm-44" target="HoNxb49eIgJGAFnL7xnm-45"><mxGeometry relative="1" as="geometry"/></mxCell><mxCell id="HoNxb49eIgJGAFnL7xnm-44" value="some thread function" style="whiteSpace=wrap;html=1;aspect=fixed;fillColor=none;" vertex="1" parent="HoNxb49eIgJGAFnL7xnm-1"><mxGeometry x="180" y="760" width="60" height="60" as="geometry"/></mxCell><mxCell id="HoNxb49eIgJGAFnL7xnm-47" style="edgeStyle=orthogonalEdgeStyle;rounded=0;orthogonalLoop=1;jettySize=auto;html=1;exitX=1;exitY=0.5;exitDx=0;exitDy=0;entryX=1;entryY=0.5;entryDx=0;entryDy=0;" edge="1" parent="HoNxb49eIgJGAFnL7xnm-1" source="HoNxb49eIgJGAFnL7xnm-45" target="HoNxb49eIgJGAFnL7xnm-35"><mxGeometry relative="1" as="geometry"/></mxCell><mxCell id="HoNxb49eIgJGAFnL7xnm-45" value="(global_data_t*)" style="whiteSpace=wrap;html=1;aspect=fixed;fillColor=none;" vertex="1" parent="HoNxb49eIgJGAFnL7xnm-1"><mxGeometry x="280" y="760" width="90" height="90" as="geometry"/></mxCell></root></mxGraphModel></diagram></mxfile>